<?xml version="1.0" standalone="no"?><!DOCTYPE svg PUBLIC "-//W3C//DTD SVG 1.1//EN" "http://www.w3.org/Graphics/SVG/1.1/DTD/svg11.dtd"><svg t="1719678825630" class="icon" viewBox="0 0 1024 1024" version="1.1" xmlns="http://www.w3.org/2000/svg" p-id="3692" xmlns:xlink="http://www.w3.org/1999/xlink" width="200" height="200"><path d="M124.4 11.4h747v1000.8h-747z" fill="#0090FF" p-id="3693"></path><path d="M871.4 84.6v176.7h62.5V147.2c0.1-16.6-6.5-32.6-18.3-44.3a62.518 62.518 0 0 0-44.2-18.3z m0 0" fill="#F0582F" p-id="3694"></path><path d="M871.4 259.8h62.5v176.7h-62.5z" fill="#FBD303" p-id="3695"></path><path d="M871.4 435.7h62.5v176.7h-62.5z" fill="#73D658" p-id="3696"></path><path d="M871.4 612.4v176.7c16.6 0.1 32.6-6.5 44.3-18.3 11.7-11.7 18.3-27.7 18.3-44.3V612.4h-62.6z m0 0" fill="#4B5AA7" p-id="3697"></path><path d="M181.5 106.3h39.4v74.8h-39.4z" fill="#333842" p-id="3698"></path><path d="M89.8 124h111.1v38.6H89.8z" fill="#FCFCFD" p-id="3699"></path><path d="M181.5 289.9h39.4v74.8h-39.4z" fill="#333842" p-id="3700"></path><path d="M89.8 308.4h111.1V347H89.8z" fill="#FCFCFD" p-id="3701"></path><path d="M181.5 474.3h39.4v74.8h-39.4z" fill="#333842" p-id="3702"></path><path d="M89.8 492.1h111.1v38.6H89.8z" fill="#FCFCFD" p-id="3703"></path><path d="M181.5 658h39.4v74.8h-39.4z" fill="#333842" p-id="3704"></path><path d="M89.8 675.7h111.1v38.6H89.8z" fill="#FCFCFD" p-id="3705"></path><path d="M181.5 841.6h39.4v74.8h-39.4z" fill="#333842" p-id="3706"></path><path d="M89.8 860.1h111.1v38.6H89.8v-38.6z m247.7-570.2h396.7v269.3H337.5V289.9z m0 0" fill="#FCFCFD" p-id="3707"></path><path d="M423.1 361.7h225.3v30.9H423.1v-30.9z m0 94.9h225.3v30.9H423.1v-30.9z m0 0" fill="#DEDEDF" p-id="3708"></path></svg>