<?xml version="1.0" standalone="no"?><!DOCTYPE svg PUBLIC "-//W3C//DTD SVG 1.1//EN" "http://www.w3.org/Graphics/SVG/1.1/DTD/svg11.dtd"><svg class="icon" width="200px" height="200.00px" viewBox="0 0 1024 1024" version="1.1" xmlns="http://www.w3.org/2000/svg"><path d="M766.24896 71.90016h-117.44768a39.17312 39.17312 0 0 0-39.14752 39.14752v282.14784a273.1264 273.1264 0 0 1 39.14752-6.74816v-256.0512a19.20512 19.20512 0 0 1 19.34848-19.34848h78.30016a19.20512 19.20512 0 0 1 19.34848 19.34848v268.20096a298.48064 298.48064 0 0 1 39.14752 16.19968V111.04768c0.45568-21.59616-17.09568-39.14752-38.69696-39.14752z m-312.75008 0H336.0512a39.17312 39.17312 0 0 0-39.14752 39.14752v684.45184a39.17312 39.17312 0 0 0 39.14752 39.14752h112.50176c-9.00096-12.14976-17.1008-25.20064-23.84896-39.14752H355.39968a19.20512 19.20512 0 0 1-19.34848-19.34848V130.40128a19.20512 19.20512 0 0 1 19.34848-19.34848h78.30016a19.20512 19.20512 0 0 1 19.34848 19.34848v365.39904c11.6992-15.29856 24.75008-29.25056 39.14752-41.40032V111.04768c0.45568-21.59616-17.09568-39.14752-38.69696-39.14752z m-234.90048 0H101.15072a39.17312 39.17312 0 0 0-39.14752 39.14752v684.45184a39.17312 39.17312 0 0 0 39.14752 39.14752h117.44768a39.17312 39.17312 0 0 0 39.14752-39.14752V111.04768c0.00512-21.59616-17.54624-39.14752-39.14752-39.14752z m0 704.25088a19.20512 19.20512 0 0 1-19.34848 19.34848H120.4992a19.20512 19.20512 0 0 1-19.34848-19.34848V130.40128a19.20512 19.20512 0 0 1 19.34848-19.34848h78.30016a19.20512 19.20512 0 0 1 19.34848 19.34848l0.45056 645.74976z" fill="#333333" /><path d="M678.5024 384.65024c-156.60032 0-283.49952 126.8992-283.49952 283.49952s126.8992 283.49952 283.49952 283.49952 283.49952-126.8992 283.49952-283.49952c0-156.14976-126.90432-283.49952-283.49952-283.49952z m0 529.64864c-135.90016 0-245.69856-110.24896-245.69856-245.69856s110.24896-245.69856 245.69856-245.69856c135.90016 0 245.69856 110.24896 245.69856 245.69856s-110.24896 245.69856-245.69856 245.69856zM175.40096 308.59776h-39.14752c-10.79808 0-19.34848 8.5504-19.34848 19.34848s8.5504 19.34848 19.34848 19.34848h39.14752a19.20512 19.20512 0 0 0 19.34848-19.34848c0.45056-10.79808-8.5504-19.34848-19.34848-19.34848z m0 78.30016h-39.14752c-10.79808 0-19.34848 8.5504-19.34848 19.34848s8.5504 19.34848 19.34848 19.34848h39.14752a19.20512 19.20512 0 0 0 19.34848-19.34848c0.45056-10.79808-8.5504-19.34848-19.34848-19.34848z m508.94848-137.24672h39.14752c10.79808 0 19.34848-8.5504 19.34848-19.34848s-8.5504-19.34848-19.34848-19.34848h-39.14752a19.20512 19.20512 0 0 0-19.34848 19.34848c-0.45056 10.79808 8.5504 19.34848 19.34848 19.34848z m0 98.0992h39.14752c10.79808 0 19.34848-8.5504 19.34848-19.34848s-8.5504-19.34848-19.34848-19.34848h-39.14752a19.20512 19.20512 0 0 0-19.34848 19.34848c-0.45056 10.34752 8.5504 19.34848 19.34848 19.34848z m-274.048 39.14752H371.1488c-10.79808 0-19.34848 8.5504-19.34848 19.34848s8.5504 19.34848 19.34848 19.34848h39.14752c10.79808 0 19.34848-8.5504 19.34848-19.34848s-8.54528-19.34848-19.34336-19.34848z m0-176.39936H371.1488c-10.79808 0-19.34848 8.5504-19.34848 19.34848s8.5504 19.34848 19.34848 19.34848h39.14752a19.20512 19.20512 0 0 0 19.34848-19.34848c0.00512-10.34752-8.54528-19.34848-19.34336-19.34848z m0 98.0992H371.1488c-10.79808 0-19.34848 8.5504-19.34848 19.34848s8.5504 19.34848 19.34848 19.34848h39.14752c10.79808 0 19.34848-8.5504 19.34848-19.34848s-8.54528-19.34848-19.34336-19.34848z m-234.90048-98.0992h-39.14752c-10.79808 0-19.34848 8.5504-19.34848 19.34848s8.5504 19.34848 19.34848 19.34848h39.14752a19.20512 19.20512 0 0 0 19.34848-19.34848c0.45056-10.34752-8.5504-19.34848-19.34848-19.34848z" fill="#333333" /><path d="M728.00256 585.35936c-6.74816 6.74816-6.74816 16.65024 0 22.94784l43.20256 43.20256H546.2016c-9.90208 0-16.65024 6.74816-16.65024 16.65024s6.74816 16.65024 16.65024 16.65024h224.9984l-43.20256 43.20256c-6.74816 6.74816-6.74816 16.65024 0 22.94784 6.74816 6.74816 16.65024 6.74816 22.94784 0l69.2992-69.2992c6.74816-3.1488 6.74816-9.90208 6.74816-13.05088s-3.1488-13.05088-3.1488-13.05088l-72.89856-69.2992c-6.2976-7.19872-16.19456-7.19872-22.94272-0.90112z" fill="#333333" /></svg>