<?xml version="1.0" standalone="no"?><!DOCTYPE svg PUBLIC "-//W3C//DTD SVG 1.1//EN" "http://www.w3.org/Graphics/SVG/1.1/DTD/svg11.dtd"><svg t="1719715257001" class="icon" viewBox="0 0 1024 1024" version="1.1" xmlns="http://www.w3.org/2000/svg" p-id="8229" xmlns:xlink="http://www.w3.org/1999/xlink" width="200" height="200"><path d="M519.784192 230.08a138.1248 138.1248 0 1 0 138.24 138.1248 138.24 138.24 0 0 0-138.24-138.1248z m55.04 181.0432h-38.4v36.4288a13.9904 13.9904 0 0 1-27.9808 0v-36.4288h-40.1152a13.9776 13.9776 0 1 1 0-27.9552h40.0896v-28.3136H464.680192a13.9776 13.9776 0 1 1 0-27.9552h23.9872l-18.7392-30.72a14.08 14.08 0 0 1 24.192-14.1952l26.7264 44.9152h0.9984l26.4192-44.672a14.08 14.08 0 0 1 24.2304 14.2208l-18.6112 30.3232h17.7408a13.9776 13.9776 0 0 1 0 27.9552h-34.9824v28.3264h38.4a14.08 14.08 0 0 1 12.4928 6.8608 13.8368 13.8368 0 0 1 0 14.2208 14.1952 14.1952 0 0 1-12.6208 6.9888z m91.4304 382.2976h165.12L679.796992 565.1072a32.8832 32.8832 0 0 0-28.352-16.2176l-246.9248 0.7296a32.8832 32.8832 0 0 0 0 65.7536l93.184-0.2432v37.5552H362.779392l-112.5504-173.6832a32.8448 32.8448 0 0 0-52.3392 39.68L332.840192 726.6688a35.5072 35.5072 0 0 0 6.4896 6.4896 49.0112 49.0112 0 0 0 48.4608 19.968h249.152z m356.992-281.728A511.6288 511.6288 0 1 1 511.668992 0.6272a511.3728 511.3728 0 0 1 511.616 511.0656z m0 0" fill="#22CC22" p-id="8230"></path></svg>